<svg width="21" height="25" viewBox="0 0 21 25" fill="none" xmlns="http://www.w3.org/2000/svg">
<path d="M3.70153 6.7749C3.70153 6.7749 3.85143 1.14848 10.4279 1.16832C16.9418 1.18806 17.1544 6.7749 17.1544 6.7749H3.70153Z" fill="#A2C437"/>
<path d="M8.28461 3.90289C8.28461 4.34117 7.92183 4.69653 7.47499 4.69653C7.02815 4.69653 6.66536 4.34117 6.66536 3.90289C6.66536 3.4646 7.02815 3.10924 7.47499 3.10924C7.92183 3.10924 8.28461 3.4646 8.28461 3.90289Z" fill="white"/>
<path d="M14.1887 3.90309C14.1887 4.3414 13.8257 4.69678 13.379 4.69678C12.9324 4.69678 12.5693 4.3414 12.5693 3.90309C12.5693 3.46488 12.9324 3.1095 13.379 3.1095C13.8257 3.1095 14.1887 3.46488 14.1887 3.90309Z" fill="white"/>
<path d="M7.25283 1.9252C7.27614 1.95811 7.34922 1.94763 7.41701 1.901C7.48268 1.8551 7.51763 1.79041 7.49433 1.75749L6.23813 0.019484C6.21377 -0.0138493 6.13963 -0.00284183 6.07396 0.0430564C6.00723 0.0896815 5.97228 0.153857 5.99664 0.187087L7.25283 1.9252Z" fill="#A2C437"/>
<path d="M13.6026 1.92493C13.5783 1.95784 13.5054 1.94745 13.4381 1.90078C13.3718 1.85487 13.3376 1.79024 13.3608 1.75732L14.6175 0.0192547C14.6418 -0.0140927 14.7147 -0.00315547 14.781 0.0428596C14.8483 0.0894159 14.8826 0.153618 14.8583 0.186857L13.6026 1.92493Z" fill="#A2C437"/>
<path d="M17.2099 7.55789H16.3864H4.46918H3.6456V13.03H3.65791V18.7696C3.65791 19.2084 4.02159 19.564 4.46918 19.564H16.3864C16.834 19.564 17.1965 19.2084 17.1965 18.7696V13.03H17.2099V7.55789Z" fill="#A2C437"/>
<path d="M20.8172 14.8731C20.8172 15.6539 20.1715 16.2869 19.3753 16.2869C18.579 16.2869 17.9333 15.6539 17.9333 14.8731V8.51963C17.9333 7.73866 18.579 7.10576 19.3753 7.10576C20.1715 7.10576 20.8172 7.73866 20.8172 8.51963V14.8731Z" fill="#A2C437"/>
<path d="M2.92154 14.8731C2.92154 15.6539 2.27613 16.2869 1.47916 16.2869C0.683223 16.2869 0.0367889 15.6539 0.0367889 14.8731V8.51956C0.0367889 7.73872 0.683223 7.10577 1.47916 7.10577C2.27613 7.10577 2.92154 7.73872 2.92154 8.51956V14.8731Z" fill="#A2C437"/>
<path d="M14.653 23.096C14.653 23.8769 14.0078 24.5098 13.2104 24.5098C12.414 24.5098 11.7688 23.8769 11.7688 23.096V16.7423C11.7688 15.9614 12.414 15.3285 13.2104 15.3285C14.0078 15.3285 14.653 15.9614 14.653 16.7423V23.096Z" fill="#A2C437"/>
<path d="M9.08558 23.096C9.08558 23.8769 8.44002 24.5098 7.64375 24.5098C6.84749 24.5098 6.20086 23.8769 6.20086 23.096V16.7422C6.20086 15.9615 6.84749 15.3285 7.64375 15.3285C8.44002 15.3285 9.08558 15.9615 9.08558 16.7422V23.096Z" fill="#A2C437"/>
</svg>
