<svg width="458" height="359" viewBox="0 0 458 359" fill="none" xmlns="http://www.w3.org/2000/svg">
<g clip-path="url(#clip0_681_2136)">
<path d="M7.94861 271.1C8.01802 269.839 8.28062 268.567 8.76217 267.326C10.3964 263.113 14.0972 260.324 18.2472 259.665C19.4035 251.235 26.6067 244.741 35.3255 244.741C42.8993 244.741 49.3284 249.642 51.646 256.455C53.5349 255.546 55.6508 255.037 57.8861 255.037C65.8649 255.037 72.3326 261.527 72.3326 269.533C72.3326 270.036 72.3076 270.531 72.2575 271.021H73.4646C78.3345 271.021 82.2827 274.982 82.2827 279.869C82.2827 284.756 78.3345 288.717 73.4646 288.717H9.11993C4.25005 288.717 0.301758 284.756 0.301758 279.869C0.301758 275.38 3.63254 271.676 7.94861 271.1" fill="#DBDFFF"/>
<path d="M420.719 112.724C420.569 109.987 419.998 107.225 418.953 104.531C415.407 95.3862 407.373 89.332 398.364 87.9003C395.853 69.6014 380.217 55.5049 361.29 55.5049C344.85 55.5049 330.894 66.1449 325.864 80.9336C321.763 78.9598 317.169 77.8533 312.318 77.8533C294.997 77.8533 280.957 91.9427 280.957 109.323C280.957 110.412 281.012 111.489 281.119 112.551H278.5C267.928 112.551 259.358 121.15 259.358 131.759C259.358 142.367 267.928 150.967 278.5 150.967H418.176C428.748 150.967 437.318 142.367 437.318 131.759C437.318 122.016 430.089 113.973 420.719 112.724Z" fill="#B7C2FB"/>
<path d="M138.508 329.559C134.93 329.547 131.367 329.088 127.903 328.193L127.22 328.005L126.587 327.689C103.69 316.26 84.374 301.164 69.1739 282.819C56.5913 267.545 46.7814 250.202 40.1853 231.572C32.2973 209.266 28.5024 185.73 28.9818 162.087C28.9914 161.591 28.9996 161.208 28.9996 160.944C28.9996 149.451 35.4074 139.367 45.3241 135.253C52.9138 132.104 121.825 103.925 126.804 101.889C136.181 97.211 146.184 101.115 147.785 101.798C151.376 103.26 215.08 129.2 228.847 135.727C243.034 142.453 246.82 154.536 246.82 160.616C246.82 188.139 242.032 213.862 232.589 237.069C224.963 255.854 214.155 273.196 200.635 288.34C174.549 317.566 148.457 327.926 148.205 328.018C145.087 329.086 141.806 329.607 138.508 329.559ZM132.372 314.427C134.634 314.932 139.843 315.689 143.237 314.456C147.55 312.89 169.388 301.616 189.796 278.751C217.993 247.16 232.3 207.448 232.321 160.717C232.27 159.771 231.595 153.018 222.613 148.76C209.114 142.36 142.898 115.404 142.231 115.132L142.048 115.055C140.66 114.476 136.244 113.257 133.2 114.845L132.591 115.128C131.852 115.43 58.7023 145.342 50.9008 148.578C45.4434 150.842 43.499 156.45 43.499 160.944C43.499 161.272 43.4905 161.75 43.4784 162.367C42.8549 194.342 50.2869 273.023 132.372 314.427Z" fill="#3F3D56"/>
<path d="M127.137 106.859C127.137 106.859 54.1461 137.494 46.3256 140.824C38.5051 144.154 34.5949 152.145 34.5949 160.137C34.5949 168.129 28.7294 272.411 127.137 322.831C127.137 322.831 136.069 325.357 142.845 322.831C149.621 320.306 235.647 277.683 235.647 159.804C235.647 159.804 235.647 147.817 221.961 141.157C208.275 134.497 142.106 106.859 142.106 106.859C142.106 106.859 133.98 103.196 127.137 106.859Z" fill="#6C63FF"/>
<path opacity="0.2" d="M140.674 133.272V290.304C140.674 290.304 208.308 255.497 207.709 163.988L140.674 133.272Z" fill="black"/>
<path d="M127.434 240.2L117.637 268.173H111.424L101.389 240.2H106.685L114.491 261.419L122.177 240.2H127.434Z" fill="white"/>
<path d="M140.704 258.982H135.726V268.173H130.629V240.2H138.514C140.611 240.2 142.324 240.306 143.651 240.519C145.005 240.733 146.227 241.145 147.315 241.758C148.43 242.371 149.227 243.277 149.705 244.476C150.209 245.648 150.461 247.18 150.461 249.071C150.461 250.963 150.143 252.601 149.505 253.987C148.895 255.345 148.072 256.371 147.036 257.064C146.001 257.756 144.965 258.249 143.93 258.542C142.895 258.835 141.819 258.982 140.704 258.982ZM139.908 244.476H135.726V254.186H140.027C141.912 254.186 143.253 253.813 144.05 253.067C144.873 252.295 145.284 250.976 145.284 249.111C145.284 247.459 144.899 246.274 144.129 245.555C143.386 244.835 141.979 244.476 139.908 244.476Z" fill="white"/>
<path d="M176.375 268.173H172.194L159.45 248.991V268.173H154.352V240.2H159.37L171.278 258.262V240.2H176.375V268.173Z" fill="white"/>
<path d="M374.561 223.368H370.802V327.984H374.561V223.368Z" fill="#DBDFFF"/>
<path d="M265.483 223.368H261.724V327.984H265.483V223.368Z" fill="#B7C2FB"/>
<path d="M340.48 327.493L326.258 318.491V313.216L342.346 327.493H340.48Z" fill="#6252D7"/>
<path d="M304.586 327.493L318.808 318.491V313.216L302.72 327.493H304.586Z" fill="#6252D7"/>
<path d="M323.436 327.493H321.631L320.489 315.849H324.577L323.436 327.493Z" fill="#6252D7"/>
<path d="M324.576 315.389H320.488V273.336H324.576V315.389Z" fill="#6252D7"/>
<path d="M325.014 300.091H320.051V312.495H325.014V300.091Z" fill="#6252D7"/>
<path d="M327.36 311.791H317.705V318.987H327.36V311.791Z" fill="#6252D7"/>
<path d="M330.498 277.684H314.567V266.729H330.498V277.684Z" fill="#282C3B"/>
<path d="M338.468 271.657H305.006C303.801 270.447 303.124 269.77 301.92 268.56V266.551C303.124 265.341 303.801 264.663 305.006 263.453H338.468C340.172 263.453 341.554 264.841 341.554 266.551V268.56C341.554 270.27 340.172 271.657 338.468 271.657Z" fill="#282C3B"/>
<path d="M351.437 267.461C353.607 267.528 355.497 265.882 355.882 263.738C358.425 249.62 367.43 199.478 369.646 185.452C369.766 184.695 369.709 183.941 369.501 183.237C368.994 181.527 367.48 180.308 365.732 179.982L361.925 179.273H323.94C323.94 179.273 302.618 204.557 300.482 214.571C298.347 224.584 295.364 265.629 295.364 265.629L351.437 267.461Z" fill="#282C3B"/>
<path d="M350.523 264.907C352.819 252.352 362.871 197.205 364.908 182.716C365.164 180.896 363.757 179.273 361.925 179.273H322.389C321.09 179.273 319.939 180.107 319.53 181.343L292.911 261.782C292.277 263.701 293.662 265.693 295.676 265.756L347.467 267.38C348.955 267.427 350.254 266.377 350.523 264.907Z" fill="#6252D7"/>
<path d="M351.438 267.461H311.639V256.141H353.78L351.438 267.461Z" fill="#282C3B"/>
<path d="M343.957 267.461H282.142V256.141H347.851C345.702 256.134 343.957 257.88 343.957 260.036V260.459V267.461Z" fill="#6252D7"/>
<path d="M276.764 325.872C276.428 324.716 275.835 318.666 275.675 317.905C275.497 317.064 274.508 317.227 274.508 317.227C274.226 317.893 273.499 318.249 271.281 317.686C269.827 317.317 271.97 316.026 266.717 315.46C265.913 315.374 263.85 317.277 263.479 317.771C263.072 318.313 252.369 323.965 252.18 324.185C251.711 324.73 252.114 327.721 256.063 327.721C263.154 327.721 269.553 328.039 272.954 328.039C275.385 328.039 277.138 327.162 276.764 325.872" fill="#282C3B"/>
<path d="M306.32 180.733C305.73 178.697 303.665 171.257 303.665 171.257C303.665 171.257 296.513 177.053 292.503 181.453C287.552 186.885 273.196 205.616 272.221 207.371C271.245 209.124 270.171 217.19 270.171 217.19L280.11 216.676C280.11 216.676 282.258 211.011 286.557 207.776C290.854 204.542 300.1 197.454 306.32 191.879C311.793 186.974 307.752 185.67 306.32 180.733Z" fill="#FF6238"/>
<path d="M325.96 155.183C325.96 155.183 325.854 156.031 326.171 159.024C326.488 162.018 327.865 163.611 328.606 164.567C329.346 165.523 334.321 167.965 335.485 168.602C335.485 168.602 324.052 183.435 315.92 183.101C300.363 182.464 308.391 168.815 308.391 168.815C308.391 168.815 313.479 166.633 315.271 165.098C316.337 164.185 316.858 159.024 316.858 159.024L325.96 155.183Z" fill="#FEC1B2"/>
<path d="M326.301 159.886C326.249 159.611 326.203 159.327 326.171 159.024C325.854 156.03 325.959 155.182 325.959 155.182L316.858 159.024C316.858 159.024 316.355 163.979 315.33 165.031C315.843 165.199 323.853 165.55 326.301 159.886Z" fill="#DB9786"/>
<path d="M299.076 232.695C299.076 232.695 276.439 249.768 274.217 254.866C271.994 259.963 265.034 316.712 265.034 316.712C265.034 316.712 268.004 318.676 272.015 319.335C272.895 319.48 276.025 319.269 276.025 319.269C276.025 319.269 282.129 301.699 285.38 292.329C288.629 282.957 295.365 268.435 295.365 268.435C295.365 268.435 304.726 261.802 311.987 258.149C333.138 247.511 328.809 235.88 328.491 226.642L299.076 232.695Z" fill="#282C3B"/>
<path d="M333.508 312.386C332.644 311.56 329.769 308.721 329.149 308.257C328.462 307.743 327.828 308.523 327.828 308.523C328.055 309.208 325.132 309.306 320.82 312.368C320.158 312.837 319.866 315.633 319.914 316.25C319.944 316.649 319.637 319.692 317.394 322.7C315.828 324.799 312.56 328.048 315.384 328.228C315.384 328.228 322.729 329.316 325.362 326.999C329.915 322.991 329.95 321.006 332.92 318.282C334.714 316.637 335.968 314.738 333.508 312.386Z" fill="#282C3B"/>
<path d="M316.449 235.362C316.449 235.362 293.669 256.526 295.363 268.435C296.148 273.943 319.913 316.25 319.913 316.25C319.913 316.25 322.833 315.9 325.399 313.518C326.697 312.312 329.947 309.604 329.947 309.604C329.947 309.604 327.174 297.605 323.142 284.392C321.096 277.684 318.471 269.885 318.017 267.058C318.017 267.058 330.357 258.63 335.5 255.876C344.424 251.097 342.183 244.601 341.866 235.362H316.449Z" fill="#282C3B"/>
<path d="M300.101 215.96C300.101 210.969 303.666 171.258 303.666 171.258L313.032 166.555C313.032 166.555 310.761 172.377 318.347 172.877C326.185 173.393 331.419 166.381 331.419 166.381L344.942 173.027C344.942 173.027 340.623 181.756 340.199 186.641C339.776 191.526 344.009 204.907 343.586 214.889C343.163 224.872 342.346 238.121 342.346 238.121C320.586 238.121 302.313 236.791 299.076 232.695C299.076 232.695 300.101 220.951 300.101 215.96" fill="#FF6238"/>
<path d="M308.471 138.412C308.042 140.977 307.339 145.242 306.831 149.107C306.324 152.973 308.26 158.371 310.168 160.869C312.077 163.368 314.725 164.165 316.896 163.586C319.069 163.006 323.413 162.418 327.214 155.681C331.015 148.945 330.798 142.211 330.798 142.211L319.612 137.012L308.471 138.412Z" fill="#FEC1B2"/>
<path d="M307.814 141.993C311.712 142.602 317.148 142.036 318.663 141.789C321.698 141.295 323.956 139.756 323.956 139.756C323.956 139.756 321.634 143.535 322.906 146.785C323.876 149.264 324.245 151.141 324.245 151.141C324.245 151.141 324.716 148.209 326.671 147.455C328.625 146.7 328.818 150.312 327.732 152.606C326.646 154.901 325.699 155.573 325.699 155.573C325.699 155.573 325.855 158.506 326.323 159.756C326.323 159.756 327.813 155.568 329.768 153.254C331.722 150.941 334.659 143.634 332.678 139.879C330.744 136.213 328.725 136.803 328.725 136.803C328.725 136.803 328.784 133.163 322.385 132.378C314.283 131.385 309.024 134.262 306.273 138.68C305.463 139.98 305.643 141.654 307.814 141.993Z" fill="#0F1E36"/>
<path d="M317.852 217.227L315.543 214.253C315.543 214.253 305.786 215.329 303.034 215.967C300.282 216.604 296.716 219.988 296.716 219.988H314.254L317.852 217.227Z" fill="#F8C9A5"/>
<path d="M313.195 214.253L314.254 219.988L351.823 219.298C351.823 219.298 358.708 216.698 356.319 203.615C354.922 195.972 352.651 185.447 350.217 178.926C349.035 175.757 345.413 170.525 340.758 174.053C337.947 176.183 336.982 182.249 337.337 186.004C337.96 192.588 342.488 208.13 342.488 208.13C342.488 208.13 325.472 210.855 313.195 214.253Z" fill="#FF6238"/>
<path d="M340.757 174.053C337.946 176.183 336.982 182.249 337.337 186.004C337.959 192.588 342.487 208.13 342.487 208.13C342.487 208.13 325.471 210.854 313.194 214.253" stroke="#0F1E36" stroke-width="1.33333" stroke-miterlimit="10"/>
<path d="M295.021 218.092H284.744L274.468 182.01H280.849C281.707 182.01 282.472 182.553 282.759 183.365L295.021 218.092Z" fill="#B7C2FB"/>
<path d="M292.071 218.092H251.962L242.196 183.801C241.939 182.904 242.611 182.01 243.542 182.01H280.738C281.363 182.01 281.912 182.426 282.084 183.029L292.071 218.092Z" fill="#6252D7"/>
<path d="M297.971 217.274H251.962V219.965H297.971V217.274Z" fill="#6252D7"/>
<path d="M320.976 217.274H297.972V219.965H320.976V217.274Z" fill="#B7C2FB"/>
<path d="M268.043 198.641C268.945 200.787 268.31 203.106 266.624 203.819C264.939 204.533 262.841 203.37 261.939 201.224C261.036 199.076 261.672 196.758 263.357 196.045C265.043 195.332 267.14 196.494 268.043 198.641Z" fill="#F5FAFF"/>
<path d="M343.245 223.368H339.486V327.984H343.245V223.368Z" fill="#B7C2FB"/>
<path d="M234.668 223.368H230.909V327.984H234.668V223.368Z" fill="#B7C2FB"/>
<path d="M329.391 224.735H219.366V219.298H329.391V224.735Z" fill="#B7C2FB"/>
<path d="M386.7 224.735H329.392V219.298H386.7V224.735Z" fill="#DBDFFF"/>
<path d="M342.262 208.012C343.149 208.206 346.34 208.901 347.227 209.096" stroke="#0F1E36" stroke-width="1.33333" stroke-miterlimit="10"/>
<path d="M303.536 180.877C301.675 191.124 300.59 201.548 300.292 212.001" stroke="#0F1E36" stroke-width="1.33333" stroke-miterlimit="10"/>
<path d="M395.687 276.002C403.802 285.644 398.969 295.881 392.609 296.882C387.575 297.674 380.739 292.646 378.883 286.115C377.027 279.585 378.994 272.901 372.147 267.982C365.298 263.063 358.107 253.707 365.69 250.103C373.273 246.497 381.915 257.566 385.791 265.714C389.668 273.862 391.453 270.97 395.687 276.002Z" fill="#6CCB71"/>
<path d="M398.597 305.903C398.597 305.903 395.314 286.012 380.361 268.059" stroke="#0F1E36" stroke-width="1.33333" stroke-miterlimit="10"/>
<path d="M406.223 280.053C404.331 283.105 401.476 291.66 409.279 296.122C413.966 298.802 422.351 295.273 423.595 289.412C424.839 283.551 421.364 277.294 427.099 272.55C432.834 267.805 438.536 253.44 432.999 250.23C426.587 246.512 420.041 255.879 418.078 266.931C416.684 274.775 409.283 275.118 406.223 280.053Z" fill="#6CCB71"/>
<path d="M406.082 307.534C406.082 307.534 406.995 298.012 412.248 286.345C414.16 282.1 420.893 271.422 424.685 263.476" stroke="#0F1E36" stroke-width="1.33333" stroke-miterlimit="10"/>
<path d="M413.333 272.553C414.198 276.532 413.718 287.412 401.954 288.048C393.521 288.503 389.627 278.703 390.518 271.972C391.408 265.24 397.581 260.552 393.254 253.302C388.927 246.052 389.269 229.856 397.656 229.582C406.042 229.308 409.256 240.787 407.186 252.545C405.622 261.436 411.934 266.119 413.333 272.553Z" fill="#6CCB71"/>
<path d="M399.536 320.411C399.536 320.411 405.415 277.269 399.264 244.534" stroke="#0F1E36" stroke-width="1.33333" stroke-miterlimit="10"/>
<path d="M401.977 328.065C396.485 328.065 391.808 324.06 390.943 318.617L388.108 300.754H415.847L413.012 318.617C412.147 324.06 407.47 328.065 401.977 328.065Z" fill="#B7C2FB"/>
<path d="M446.829 167.258C446.829 187.374 430.578 203.682 410.531 203.682C390.484 203.682 374.233 187.374 374.233 167.258C374.233 147.142 390.484 130.835 410.531 130.835C430.578 130.835 446.829 147.142 446.829 167.258Z" stroke="#4C3CFF" stroke-width="2.83467" stroke-miterlimit="10"/>
<path d="M436.197 140.756C429.629 147.347 420.555 151.424 410.531 151.424C400.7 151.424 391.781 147.502 385.245 141.132" stroke="#4C3CFF" stroke-width="2.83467" stroke-miterlimit="10"/>
<path d="M385.245 193.76C391.814 187.169 400.888 183.092 410.911 183.092C420.742 183.092 429.661 187.014 436.197 193.385" stroke="#4C3CFF" stroke-width="2.83467" stroke-miterlimit="10"/>
<path d="M430.913 167.258C430.913 187.374 421.788 203.682 410.531 203.682C399.274 203.682 390.148 187.374 390.148 167.258C390.148 147.142 399.274 130.835 410.531 130.835C421.788 130.835 430.913 147.142 430.913 167.258Z" stroke="#4C3CFF" stroke-width="2.83467" stroke-miterlimit="10"/>
<path d="M410.53 203.681V130.835" stroke="#4C3CFF" stroke-width="2.83467" stroke-miterlimit="10"/>
<path d="M446.829 167.258H374.233" stroke="#4C3CFF" stroke-width="2.83467" stroke-miterlimit="10"/>
<path d="M70.335 105.751V120.236" stroke="#6252D7" stroke-width="1.88933" stroke-miterlimit="10" stroke-dasharray="7.56 7.56"/>
<path d="M246.605 66.135H110.74" stroke="#6252D7" stroke-width="1.88933" stroke-miterlimit="10" stroke-dasharray="7.56 7.56"/>
<path d="M259.826 65.8646C259.826 61.0914 263.683 57.222 268.439 57.222C273.196 57.222 277.051 61.0914 277.051 65.8646C277.051 70.6379 273.196 74.5072 268.439 74.5072C263.683 74.5072 259.826 70.6379 259.826 65.8646ZM255.134 65.8646C255.134 73.2385 261.091 79.2158 268.439 79.2158C275.788 79.2158 281.744 73.2385 281.744 65.8646C281.744 58.4908 275.788 52.5134 268.439 52.5134C261.091 52.5134 255.134 58.4908 255.134 65.8646Z" fill="#6252D7"/>
<path d="M277.901 68.3328H310.965V63.3958H277.901V68.3328Z" fill="#6252D7"/>
<path d="M305.721 57.5319H310.965V68.3328H305.721V57.5319Z" fill="#6252D7"/>
<path d="M296.845 58.4789H300.83V68.3335H296.845V58.4789Z" fill="#6252D7"/>
<path d="M296.845 61.5125H310.965V68.3328H296.845V61.5125Z" fill="#6252D7"/>
<path d="M85.3341 79.8261C81.7543 83.4182 76.898 85.4365 71.8357 85.4365C66.7726 85.4365 61.917 83.4182 58.3372 79.8261C54.7574 76.2339 52.7461 71.3616 52.7461 66.281C52.7461 61.2012 54.7574 56.3281 58.3372 52.7359C61.917 49.1438 66.7726 47.1255 71.8357 47.1255C76.898 47.1255 81.7543 49.1438 85.3341 52.7359C88.9139 56.3281 90.9253 61.2012 90.9253 66.281C90.9253 71.3616 88.9139 76.2339 85.3341 79.8261Z" fill="white"/>
<path d="M85.3346 79.8259C81.7549 83.4181 76.8986 85.4364 71.8362 85.4364C66.7731 85.4364 61.9175 83.4181 58.3378 79.8259C54.758 76.2337 52.7466 71.3614 52.7466 66.2808C52.7466 61.201 54.758 56.3279 58.3378 52.7358C61.9175 49.1436 66.7731 47.1253 71.8362 47.1253C76.8986 47.1253 81.7549 49.1436 85.3346 52.7358C88.9144 56.3279 90.9258 61.201 90.9258 66.2808C90.9258 71.3614 88.9144 76.2337 85.3346 79.8259ZM105.95 70.9428V61.3266C105.95 59.8605 104.766 58.6722 103.305 58.6722H100.389C100.027 58.6722 99.7146 58.4302 99.6145 58.0806C99.017 56.007 98.1927 54.0102 97.1537 52.1204C96.9792 51.8016 97.0292 51.4089 97.2854 51.1519L99.3468 49.0833C100.379 48.0465 100.379 46.3657 99.3468 45.3296L92.5701 38.5294C91.5368 37.4933 89.8625 37.4933 88.8293 38.5294L86.7678 40.598C86.5117 40.855 86.1203 40.9053 85.8026 40.7294C83.9193 39.6868 81.9287 38.8597 79.8623 38.2602C79.5138 38.1596 79.272 37.8459 79.272 37.4826V34.5574C79.272 33.092 78.0878 31.903 76.6274 31.903H67.0443C65.5832 31.903 64.399 33.092 64.399 34.5574V37.4826C64.399 37.8459 64.1571 38.1596 63.8094 38.2602C61.743 38.8597 59.7531 39.6868 57.8698 40.7294C57.5528 40.9053 57.1607 40.855 56.9053 40.598L54.8438 38.5294C53.8106 37.4933 52.1355 37.4933 51.103 38.5294L44.3263 45.3296C43.293 46.3657 43.293 48.0465 44.3263 49.0833L46.387 51.1511C46.6439 51.4082 46.694 51.8016 46.5186 52.1197C45.479 54.0095 44.6547 56.007 44.0579 58.0806C43.9571 58.4302 43.6451 58.6722 43.2823 58.6722H40.368C38.9069 58.6722 37.7227 59.8605 37.7227 61.3266V70.9428C37.7227 72.4082 38.9069 73.5973 40.368 73.5973H43.2823C43.6451 73.5973 43.9571 73.8392 44.0579 74.1889C44.6547 76.2625 45.4797 78.2592 46.5186 80.1497C46.694 80.4678 46.6439 80.8613 46.387 81.1183L44.3263 83.1861C43.293 84.2229 43.293 85.9031 44.3263 86.9398L51.103 93.74C52.1355 94.7761 53.8106 94.7761 54.8438 93.7393L56.9045 91.6715C57.1607 91.4144 57.5521 91.3642 57.8698 91.5401C59.7531 92.5826 61.743 93.409 63.8094 94.0086C64.1571 94.1098 64.399 94.4228 64.399 94.7861V97.712C64.399 99.1774 65.5832 100.366 67.0443 100.366H76.6274C78.0878 100.366 79.272 99.1774 79.272 97.712V94.7869C79.272 94.4236 79.5138 94.1098 79.8623 94.0086C81.9287 93.4097 83.9193 92.5826 85.8026 91.5393C86.1203 91.3642 86.5117 91.4144 86.7678 91.6715L88.8293 93.7393C89.8625 94.7761 91.5368 94.7761 92.5701 93.74L99.3468 86.9398C100.379 85.9031 100.379 84.2229 99.3468 83.1861L97.2854 81.1176C97.0292 80.8605 96.9792 80.4678 97.1537 80.149C98.1927 78.2592 99.017 76.2625 99.6145 74.1889C99.7146 73.8392 100.027 73.5973 100.389 73.5973H103.305C104.766 73.5973 105.95 72.4082 105.95 70.9428" fill="#DBDFFF"/>
<path d="M12.4326 328.085H457.595" stroke="#0F1E36" stroke-width="1.88933" stroke-miterlimit="10"/>
<mask id="mask0_681_2136" style="mask-type:alpha" maskUnits="userSpaceOnUse" x="377" y="134" width="67" height="66">
<circle cx="410.177" cy="167" r="33" fill="black"/>
</mask>
<g mask="url(#mask0_681_2136)">
<path d="M443.033 134H377.177V156H443.033V134Z" fill="black"/>
<path d="M443.033 156H377.177V178H443.033V156Z" fill="#DD0000"/>
<path d="M443.033 178H377.177V200H443.033V178Z" fill="#FFCE00"/>
</g>
</g>
<defs>
<clipPath id="clip0_681_2136">
<rect width="458" height="359" fill="white"/>
</clipPath>
</defs>
</svg>
