<svg width="21" height="25" viewBox="0 0 21 25" fill="none" xmlns="http://www.w3.org/2000/svg">
<path d="M17.1381 13.0222C17.108 9.91964 19.7414 8.4292 19.8604 8.35699C18.3794 6.24993 16.0747 5.9614 15.253 5.92645C13.2908 5.73346 11.4247 7.05062 10.4299 7.05062C9.43561 7.05062 7.89862 5.95576 6.2726 5.98572C4.13292 6.01567 2.1623 7.19498 1.05945 9.05704C-1.16126 12.8088 0.492269 18.3646 2.65696 21.4072C3.71529 22.8946 4.97619 24.569 6.63372 24.5084C8.22973 24.448 8.83292 23.5053 10.761 23.5053C12.6896 23.5053 13.2323 24.5084 14.9194 24.4773C16.6369 24.448 17.7242 22.9607 18.7751 21.4677C19.9905 19.74 20.4901 18.0674 20.5201 17.9814C20.4826 17.9648 17.1721 16.7306 17.1381 13.0222Z" fill="black"/>
<path d="M13.9675 3.91379C14.8478 2.87703 15.44 1.43605 15.2775 6.53267e-05C14.0111 0.0503597 12.4766 0.821782 11.5663 1.85737C10.7515 2.77492 10.0378 4.24139 10.2309 5.64874C11.6433 5.75521 13.0873 4.94953 13.9675 3.91379Z" fill="black"/>
</svg>
