<svg width="26" height="25" viewBox="0 0 26 25" fill="none" xmlns="http://www.w3.org/2000/svg">
<path d="M12.5519 18.5091C11.3015 18.5091 10.1373 18.171 9.10249 17.4949C8.06769 16.8188 7.29156 15.9736 6.77416 14.9172L1.60011 6.12744C0.522177 8.02906 0.047905 10.0997 0.047905 12.2549C0.047905 15.3397 1.08271 18.002 3.10923 20.284C5.13575 22.5659 7.67963 23.9182 10.6979 24.383L14.3197 18.2133C13.9747 18.3401 13.328 18.5091 12.5519 18.5091Z" fill="#82D889"/>
<path d="M8.62822 7.18391C9.79236 6.29648 11.0859 5.91615 12.5519 5.91615H23.2881C22.167 4.0568 20.6579 2.7045 18.7607 1.64804C16.8636 0.549364 14.794 0 12.5519 0C10.6116 0 8.75756 0.422603 7.07602 1.22549C5.39448 2.02838 3.7991 3.21165 2.67804 4.73293L6.29989 10.5646C6.64483 9.21229 7.46403 8.07134 8.62822 7.18391Z" fill="#E86438"/>
<path d="M24.1073 7.64868H16.8636C18.114 8.87417 18.9763 10.48 18.9763 12.2548C18.9763 13.5649 18.5883 14.7481 17.8553 15.8468L12.6812 24.5098C16.0875 24.4675 19.0195 23.2843 21.434 20.8756C23.8485 18.4668 25.0558 15.5933 25.0558 12.2548C25.0558 10.6913 24.7971 9.0432 24.1073 7.64868Z" fill="#FCE056"/>
<path d="M12.5519 7.60645C15.1389 7.60645 17.2947 9.71936 17.2947 12.2548C17.2947 14.7903 15.1389 16.9032 12.5519 16.9032C9.96483 16.9032 7.80901 14.7904 7.80901 12.2548C7.80901 9.71931 9.96483 7.60645 12.5519 7.60645Z" fill="#25B9E1"/>
</svg>
