<svg width="25" height="25" viewBox="0 0 25 25" fill="none" xmlns="http://www.w3.org/2000/svg">
<path d="M11.4828 1.92343C15.9821 1.24868 20.4901 0.613139 24.9981 -4.673e-05C25.0009 3.87216 24.9981 7.74152 25.0009 11.6137C20.4958 11.6305 15.9907 11.6977 11.4828 11.7117C11.4799 8.44706 11.4799 5.18525 11.4828 1.92343Z" fill="#0078D6"/>
<path d="M0.0558548 3.48597C3.44398 2.97361 6.84636 2.53121 10.2487 2.11405C10.2516 5.32548 10.2516 8.5341 10.2544 11.7455C6.85492 11.7427 3.45538 11.7931 0.0558548 11.7847V3.48597Z" fill="#0078D6"/>
<path d="M0.0558548 12.7954C3.45253 12.7842 6.84921 12.8374 10.2459 12.8318C10.2459 16.0516 10.2544 19.2715 10.2487 22.4912C6.85492 21.9985 3.45538 21.5673 0.0558548 21.1165V12.7954Z" fill="#0078D6"/>
<path d="M11.4628 12.9243C15.9764 12.9243 20.4872 12.9243 24.998 12.9243C25.0038 16.7853 24.998 20.6462 24.998 24.51C20.4987 23.8493 15.9907 23.2361 11.4828 22.6369C11.4771 19.4003 11.4685 16.1637 11.4628 12.9243Z" fill="#0078D6"/>
</svg>
