<svg width="16" height="16" viewBox="0 0 16 16" fill="none" xmlns="http://www.w3.org/2000/svg">
<path d="M5.29303 14.364C5.10556 14.1764 5.00024 13.9221 5.00024 13.657C5.00024 13.3918 5.10556 13.1375 5.29303 12.95L10.243 7.99995L5.29303 3.04995C5.11087 2.86135 5.01008 2.60875 5.01236 2.34655C5.01463 2.08435 5.1198 1.83354 5.30521 1.64813C5.49062 1.46272 5.74143 1.35756 6.00363 1.35528C6.26583 1.353 6.51843 1.45379 6.70703 1.63595L12.364 7.29295C12.5515 7.48048 12.6568 7.73479 12.6568 7.99995C12.6568 8.26512 12.5515 8.51942 12.364 8.70695L6.70703 14.364C6.5195 14.5514 6.26519 14.6567 6.00003 14.6567C5.73487 14.6567 5.48056 14.5514 5.29303 14.364Z" fill="white"/>
</svg>
