<svg width="121" height="41" viewBox="0 0 121 41" fill="none" xmlns="http://www.w3.org/2000/svg">
  <path d="M55.464 12.8L51.528 24H49.032L45 12.8H47.128L50.264 21.296L53.352 12.8H55.464Z" fill="#3F3D56" />
  <path d="M63.9831 20.432H58.8151C58.9218 21.1253 59.1991 21.648 59.6471 22C60.1058 22.352 60.6231 22.528 61.1991 22.528C61.5618 22.528 61.9778 22.464 62.4471 22.336C62.9165 22.208 63.3218 22.0533 63.6631 21.872L63.7591 23.552C62.9911 23.9573 62.1005 24.16 61.0871 24.16C59.7005 24.16 58.6285 23.7653 57.8711 22.976C57.1245 22.1867 56.7511 21.2 56.7511 20.016C56.7511 18.8533 57.0925 17.872 57.7751 17.072C58.4685 16.272 59.4071 15.872 60.5911 15.872C61.6151 15.872 62.4578 16.192 63.1191 16.832C63.7805 17.4613 64.1111 18.2987 64.1111 19.344C64.1111 19.664 64.0685 20.0267 63.9831 20.432ZM61.7431 17.984C61.5085 17.664 61.1458 17.504 60.6551 17.504C60.1645 17.504 59.7698 17.648 59.4711 17.936C59.1725 18.224 58.9698 18.608 58.8631 19.088H62.0951C62.0951 18.672 61.9778 18.304 61.7431 17.984Z" fill="#3F3D56" />
  <path d="M71.6255 15.872L71.2415 17.744H70.5055C70.1855 17.744 69.8922 17.8187 69.6255 17.968C69.3588 18.1173 69.1668 18.3093 69.0495 18.544V24H67.0655V16H68.9215L68.9695 16.848C69.5988 16.1973 70.3082 15.872 71.0975 15.872H71.6255Z" fill="#3F3D56" />
  <path d="M77.3037 28C76.0664 28 75.1277 27.7653 74.4877 27.296C73.8477 26.8373 73.5278 26.2827 73.5278 25.632C73.5278 24.896 73.9651 24.2987 74.8397 23.84C74.3597 23.5413 74.1197 23.1573 74.1197 22.688C74.1197 22.2187 74.3864 21.856 74.9198 21.6C74.0984 21.0133 73.6877 20.1547 73.6877 19.024C73.6877 18.128 73.9758 17.3813 74.5518 16.784C75.1278 16.176 75.9224 15.872 76.9357 15.872C77.6504 15.872 78.2584 16.032 78.7598 16.352C79.1864 16.1173 79.7571 16 80.4717 16H80.9837L80.8558 17.248H80.1357C79.9544 17.248 79.8051 17.2533 79.6877 17.264C80.0077 17.7653 80.1677 18.352 80.1677 19.024C80.1677 19.92 79.8797 20.672 79.3037 21.28C78.7384 21.8773 77.9491 22.176 76.9357 22.176C76.6691 22.176 76.3864 22.1493 76.0877 22.096C75.9704 22.1493 75.9117 22.2347 75.9117 22.352C75.9117 22.5333 76.0558 22.6667 76.3438 22.752C76.6424 22.8373 77.1651 22.9227 77.9118 23.008C78.2104 23.0507 78.4717 23.0933 78.6957 23.136C78.9197 23.168 79.1971 23.2427 79.5277 23.36C79.8584 23.4773 80.1251 23.616 80.3278 23.776C80.5411 23.936 80.7277 24.1547 80.8877 24.432C81.0477 24.72 81.1278 25.0507 81.1278 25.424C81.1278 26.2133 80.7918 26.8373 80.1198 27.296C79.4584 27.7653 78.5197 28 77.3037 28ZM76.9357 17.328C76.4557 17.328 76.0877 17.4827 75.8317 17.792C75.5864 18.0907 75.4637 18.5013 75.4637 19.024C75.4637 19.5467 75.5864 19.9627 75.8317 20.272C76.0877 20.5707 76.4557 20.72 76.9357 20.72C77.4051 20.72 77.7624 20.5707 78.0078 20.272C78.2638 19.9627 78.3918 19.5467 78.3918 19.024C78.3918 18.5013 78.2638 18.0907 78.0078 17.792C77.7624 17.4827 77.4051 17.328 76.9357 17.328ZM77.2397 24.48C76.9517 24.448 76.6317 24.4 76.2797 24.336C75.5437 24.5813 75.1757 24.9493 75.1757 25.44C75.1757 25.792 75.3517 26.0693 75.7037 26.272C76.0664 26.4853 76.5677 26.592 77.2077 26.592C77.8371 26.592 78.3544 26.496 78.7598 26.304C79.1651 26.112 79.3677 25.8453 79.3677 25.504C79.3677 25.3227 79.3091 25.168 79.1917 25.04C79.0744 24.912 78.8931 24.8107 78.6478 24.736C78.4131 24.672 78.1998 24.6187 78.0078 24.576C77.8264 24.544 77.5704 24.512 77.2397 24.48Z" fill="#3F3D56" />
  <path d="M86.6314 22.528L86.4554 24.16H85.7354C85.0527 24.16 84.5407 23.968 84.1994 23.584C83.858 23.1893 83.6874 22.6827 83.6874 22.064V12H85.6714V21.248C85.6714 21.856 85.7247 22.224 85.8314 22.352C85.938 22.4693 86.2047 22.528 86.6314 22.528Z" fill="#3F3D56" />
  <path d="M96.1644 20.432H90.9964C91.103 21.1253 91.3804 21.648 91.8284 22C92.287 22.352 92.8044 22.528 93.3804 22.528C93.743 22.528 94.159 22.464 94.6284 22.336C95.0977 22.208 95.503 22.0533 95.8444 21.872L95.9404 23.552C95.1724 23.9573 94.2817 24.16 93.2684 24.16C91.8817 24.16 90.8097 23.7653 90.0524 22.976C89.3057 22.1867 88.9324 21.2 88.9324 20.016C88.9324 18.8533 89.2737 17.872 89.9564 17.072C90.6497 16.272 91.5884 15.872 92.7724 15.872C93.7964 15.872 94.639 16.192 95.3004 16.832C95.9617 17.4613 96.2924 18.2987 96.2924 19.344C96.2924 19.664 96.2497 20.0267 96.1644 20.432ZM93.9244 17.984C93.6897 17.664 93.327 17.504 92.8364 17.504C92.3457 17.504 91.951 17.648 91.6524 17.936C91.3537 18.224 91.151 18.608 91.0444 19.088H94.2764C94.2764 18.672 94.159 18.304 93.9244 17.984Z" fill="#3F3D56" />
  <path d="M101.231 14.784H99.2467V12.8H101.231V14.784ZM101.231 24H99.2467V16H101.231V24Z" fill="#3F3D56" />
  <path d="M108.099 24.16C106.872 24.16 105.917 23.7653 105.235 22.976C104.552 22.1867 104.211 21.2 104.211 20.016C104.211 18.832 104.552 17.8453 105.235 17.056C105.917 16.2667 106.872 15.872 108.099 15.872C109.069 15.872 109.869 16.0693 110.499 16.464L110.323 18.16C109.661 17.7227 108.973 17.504 108.258 17.504C107.629 17.504 107.133 17.7333 106.771 18.192C106.419 18.6507 106.243 19.2587 106.243 20.016C106.243 20.7733 106.419 21.3813 106.771 21.84C107.133 22.2987 107.629 22.528 108.258 22.528C108.973 22.528 109.661 22.3093 110.323 21.872L110.499 23.568C109.869 23.9627 109.069 24.16 108.099 24.16Z" fill="#3F3D56" />
  <path d="M120.502 24H118.518V19.696C118.518 18.9493 118.39 18.4 118.134 18.048C117.889 17.6853 117.489 17.504 116.934 17.504C116.326 17.504 115.825 17.7333 115.43 18.192V24H113.446V12H115.43V16.416C115.985 16.0533 116.54 15.872 117.094 15.872C119.366 15.872 120.502 17.1467 120.502 19.696V24Z" fill="#3F3D56" />
  <path d="M19.6124 40.9994C18.9718 40.9973 18.334 40.9155 17.714 40.7559L17.5918 40.7224L17.4784 40.666C13.38 38.6281 9.92237 35.9363 7.20156 32.6654C4.9493 29.9419 3.19335 26.8496 2.01264 23.5275C0.600701 19.5503 -0.0785807 15.3536 0.00722281 11.1379C0.00895129 11.0494 0.0104212 10.9811 0.0104212 10.934C0.0104212 8.88476 1.1574 7.08667 2.93248 6.35315C4.29103 5.79176 16.6261 0.767102 17.5173 0.404056C19.1958 -0.430008 20.9864 0.266157 21.2729 0.387886C21.9157 0.648502 33.3187 5.27395 35.7828 6.43764C38.3224 7.63698 39 9.79155 39 10.8755C39 15.7831 38.143 20.3697 36.4527 24.5078C35.0877 27.8573 33.153 30.9495 30.7329 33.6497C26.0636 38.8609 21.3931 40.7083 21.3481 40.7246C20.7899 40.9151 20.2026 41.0081 19.6124 40.9994ZM18.514 38.3013C18.9189 38.3913 19.8512 38.5263 20.4588 38.3065C21.2307 38.0273 25.1399 36.017 28.7928 31.94C33.84 26.3071 36.4009 19.2261 36.4046 10.8937C36.3956 10.7248 36.2747 9.52083 34.667 8.7616C32.2506 7.62042 20.3982 2.81399 20.2787 2.76554L20.246 2.75177C19.9976 2.64855 19.2071 2.43112 18.6622 2.7143L18.5531 2.76474C18.421 2.81855 5.32717 8.15205 3.93071 8.72909C2.95384 9.13276 2.60579 10.1328 2.60579 10.934C2.60579 10.9926 2.60426 11.0778 2.6021 11.1879C2.4905 16.8893 3.82082 30.9186 18.514 38.3013Z" fill="#3F3D56" />
  <path d="M17.5769 1.29028C17.5769 1.29028 4.51157 6.75277 3.11171 7.34652C1.71184 7.94027 1.01191 9.36527 1.01191 10.7903C1.01191 12.2153 -0.0379913 30.8096 17.5769 39.7999C17.5769 39.7999 19.1757 40.2502 20.3886 39.7999C21.6015 39.3496 37 31.7496 37 10.7309C37 10.7309 37 8.59339 34.5502 7.40589C32.1005 6.21839 20.2563 1.29028 20.2563 1.29028C20.2563 1.29028 18.8018 0.637152 17.5769 1.29028Z" fill="#6C63FF" />
  <path opacity="0.2" d="M20 6V34C20 34 32.1064 27.7935 31.9993 11.4769L20 6Z" fill="black" />
  <path d="M15.848 16L12.896 24.4H11.024L8 16H9.596L11.948 22.372L14.264 16H15.848Z" fill="white" />
  <path d="M19.8467 21.64H18.3467V24.4H16.8107V16H19.1867C19.8187 16 20.3347 16.032 20.7347 16.096C21.1427 16.16 21.5107 16.284 21.8387 16.468C22.1747 16.652 22.4147 16.924 22.5587 17.284C22.7107 17.636 22.7867 18.096 22.7867 18.664C22.7867 19.232 22.6907 19.724 22.4987 20.14C22.3147 20.548 22.0667 20.856 21.7547 21.064C21.4427 21.272 21.1307 21.42 20.8187 21.508C20.5067 21.596 20.1827 21.64 19.8467 21.64ZM19.6067 17.284H18.3467V20.2H19.6427C20.2107 20.2 20.6147 20.088 20.8547 19.864C21.1027 19.632 21.2267 19.236 21.2267 18.676C21.2267 18.18 21.1107 17.824 20.8787 17.608C20.6547 17.392 20.2307 17.284 19.6067 17.284Z" fill="white" />
  <path d="M30.5952 24.4H29.3352L25.4952 18.64V24.4H23.9592V16H25.4712L29.0592 21.424V16H30.5952V24.4Z" fill="white" />
</svg>
  