<svg width="18" height="18" viewBox="0 0 18 18" fill="none" xmlns="http://www.w3.org/2000/svg"
><path d="M15.372 4.57957L9.39226 1.57957C9.28823 1.52703 9.17336 1.49953 9.05681 1.49927C8.94026 1.49901 8.82527 1.526 8.72101 1.57807L2.70076 4.57807C2.47801 4.69057 2.32426 4.90582 2.29276 5.15332C2.28301 5.22607 1.43401 12.4591 8.69851 16.4093C8.81018 16.4702 8.93556 16.5016 9.06276 16.5004C9.18996 16.4992 9.31474 16.4655 9.42526 16.4026C16.4055 12.4583 15.8108 5.47282 15.7823 5.17732C15.77 5.05113 15.7259 4.93012 15.6542 4.82559C15.5824 4.72105 15.4853 4.63641 15.372 4.57957Z"
fill="#6c63ff"/></svg>