<svg width="56" height="15" viewBox="0 0 56 15" fill="none" xmlns="http://www.w3.org/2000/svg">
<path d="M14.659 5.86099H9.20432L7.57952 0.621639L5.83865 5.86099H0.5L4.79413 9.0046L3.16933 14.2439L7.57952 10.9839L11.8736 14.2439L10.2488 9.0046L14.659 5.86099Z" fill="#00B67A"/>
<path d="M10.597 10.1689L10.2489 9.0046L7.57953 10.9839L10.597 10.1689Z" fill="#005128"/>
<path d="M23.3462 5.7559V6.5134H21.2035V12.1145H20.3292V6.5134H18.1865V5.7559H23.3462ZM23.7271 7.47867H24.4673V8.27945C24.5279 8.12362 24.6765 7.93461 24.9131 7.71241C25.1497 7.48732 25.4224 7.37478 25.7312 7.37478C25.7456 7.37478 25.7702 7.37622 25.8048 7.37911C25.8394 7.38199 25.8986 7.38777 25.9823 7.39642V8.21885C25.9361 8.21019 25.8928 8.20442 25.8524 8.20153C25.8149 8.19865 25.773 8.1972 25.7269 8.1972C25.3344 8.1972 25.0329 8.32418 24.8222 8.57812C24.6115 8.82917 24.5062 9.11919 24.5062 9.44815V12.1145H23.7271V7.47867ZM27.4366 7.47867V10.5563C27.4366 10.7929 27.4742 10.9862 27.5492 11.1363C27.6877 11.4133 27.946 11.5518 28.324 11.5518C28.8665 11.5518 29.2359 11.3094 29.4321 10.8246C29.5389 10.5649 29.5923 10.2085 29.5923 9.75548V7.47867H30.3714V12.1145H29.6355L29.6442 11.4306C29.5432 11.6067 29.4177 11.7553 29.2676 11.8765C28.9704 12.1189 28.6097 12.2401 28.1855 12.2401C27.5247 12.2401 27.0745 12.0193 26.835 11.5778C26.7051 11.3412 26.6402 11.0252 26.6402 10.6298V7.47867H27.4366ZM32.0552 10.6601C32.0783 10.9199 32.1432 11.119 32.25 11.2575C32.4462 11.5085 32.7867 11.6341 33.2715 11.6341C33.5601 11.6341 33.814 11.572 34.0334 11.4479C34.2527 11.321 34.3623 11.1262 34.3623 10.8636C34.3623 10.6645 34.2743 10.513 34.0983 10.4091C33.9857 10.3456 33.7635 10.272 33.4317 10.1883L32.8127 10.0325C32.4174 9.9344 32.1259 9.82474 31.9383 9.70354C31.6036 9.49288 31.4362 9.20143 31.4362 8.82917C31.4362 8.39055 31.5935 8.03561 31.908 7.76435C32.2255 7.49309 32.6511 7.35747 33.185 7.35747C33.8833 7.35747 34.3869 7.56235 34.6956 7.97212C34.889 8.23183 34.9827 8.51175 34.977 8.81186H34.2411C34.2267 8.63583 34.1647 8.47567 34.055 8.33139C33.8761 8.1265 33.5659 8.02406 33.1244 8.02406C32.83 8.02406 32.6064 8.08033 32.4534 8.19288C32.3034 8.30542 32.2283 8.45403 32.2283 8.63872C32.2283 8.84072 32.3279 9.00231 32.527 9.12351C32.6424 9.19566 32.8127 9.25914 33.0378 9.31397L33.5529 9.4395C34.1127 9.57513 34.4879 9.70642 34.6783 9.8334C34.9813 10.0325 35.1328 10.3456 35.1328 10.7727C35.1328 11.1853 34.9755 11.5417 34.661 11.8418C34.3493 12.142 33.8732 12.292 33.2326 12.292C32.5429 12.292 32.0538 12.1362 31.7652 11.8245C31.4795 11.51 31.3266 11.1219 31.3064 10.6601H32.0552ZM36.1803 6.18443H36.9681V7.47867H37.7083V8.11496H36.9681V11.1406C36.9681 11.3022 37.0229 11.4104 37.1326 11.4653C37.1932 11.497 37.2942 11.5129 37.4356 11.5129C37.4731 11.5129 37.5135 11.5129 37.5568 11.5129C37.6001 11.51 37.6506 11.5057 37.7083 11.4999V12.1145C37.6188 12.1405 37.525 12.1593 37.4269 12.1708C37.3317 12.1824 37.2278 12.1881 37.1153 12.1881C36.7517 12.1881 36.505 12.0958 36.3751 11.9111C36.2452 11.7235 36.1803 11.4811 36.1803 11.1839V8.11496H35.5527V7.47867H36.1803V6.18443ZM40.4483 11.5908C40.8119 11.5908 41.1134 11.4393 41.3529 11.1363C41.5953 10.8304 41.7165 10.3745 41.7165 9.76847C41.7165 9.3991 41.6631 9.08167 41.5564 8.81619C41.3544 8.30542 40.985 8.05003 40.4483 8.05003C39.9086 8.05003 39.5393 8.31985 39.3402 8.85947C39.2334 9.14804 39.18 9.51453 39.18 9.95892C39.18 10.3168 39.2334 10.6212 39.3402 10.8722C39.5422 11.3513 39.9115 11.5908 40.4483 11.5908ZM38.4312 7.50031H39.1887V8.11496C39.3445 7.90431 39.5147 7.74126 39.6994 7.62584C39.962 7.45269 40.2708 7.36612 40.6257 7.36612C41.1509 7.36612 41.5968 7.56812 41.9633 7.97212C42.3297 8.37323 42.513 8.94749 42.513 9.69488C42.513 10.7049 42.2489 11.4263 41.7209 11.8592C41.3861 12.1333 40.9965 12.2704 40.5521 12.2704C40.203 12.2704 39.9101 12.1939 39.6735 12.041C39.5349 11.9544 39.3806 11.8058 39.2103 11.5951V13.9628H38.4312V7.50031ZM43.4263 7.50031H44.2184V12.1145H43.4263V7.50031ZM43.4263 5.7559H44.2184V6.63893H43.4263V5.7559ZM45.4218 5.7559H46.2009V12.1145H45.4218V5.7559ZM49.2136 11.6124C49.7301 11.6124 50.0836 11.4176 50.2741 11.0281C50.4674 10.6356 50.5641 10.1999 50.5641 9.72085C50.5641 9.288 50.4948 8.93594 50.3563 8.66469C50.137 8.2376 49.759 8.02406 49.2222 8.02406C48.7461 8.02406 48.3998 8.20586 48.1834 8.56946C47.9669 8.93306 47.8587 9.37168 47.8587 9.88534C47.8587 10.3788 47.9669 10.79 48.1834 11.119C48.3998 11.4479 48.7432 11.6124 49.2136 11.6124ZM49.2439 7.34448C49.8412 7.34448 50.3462 7.54359 50.7589 7.94182C51.1715 8.34005 51.3778 8.92584 51.3778 9.69921C51.3778 10.4466 51.196 11.0641 50.8324 11.5518C50.4688 12.0395 49.9047 12.2834 49.14 12.2834C48.5022 12.2834 47.9958 12.0684 47.6207 11.6384C47.2455 11.2055 47.058 10.6255 47.058 9.89832C47.058 9.11919 47.2556 8.49876 47.651 8.03705C48.0463 7.57534 48.5773 7.34448 49.2439 7.34448ZM52.4643 6.18443H53.2521V7.47867H53.9923V8.11496H53.2521V11.1406C53.2521 11.3022 53.3069 11.4104 53.4166 11.4653C53.4772 11.497 53.5782 11.5129 53.7196 11.5129C53.7571 11.5129 53.7975 11.5129 53.8408 11.5129C53.8841 11.51 53.9346 11.5057 53.9923 11.4999V12.1145C53.9028 12.1405 53.809 12.1593 53.7109 12.1708C53.6157 12.1824 53.5118 12.1881 53.3993 12.1881C53.0357 12.1881 52.789 12.0958 52.6591 11.9111C52.5292 11.7235 52.4643 11.4811 52.4643 11.1839V8.11496H51.8367V7.47867H52.4643V6.18443Z" fill="black"/>
</svg>
