<svg width="155" height="107" viewBox="0 0 155 107" fill="none" xmlns="http://www.w3.org/2000/svg">
<ellipse cx="77.649" cy="31.2776" rx="31.4471" ry="31.1392" fill="#FFCF00"/>
<path d="M71.4798 12.7712C67.4259 14.3847 64.6041 17.0608 62.8554 20.8388C61.981 22.6885 61.7426 24.0266 61.3451 29.5362C60.2721 43.1135 60.749 47.7179 63.2926 49.8431L64.5644 50.9056L71.3208 50.6695C83.8003 50.2366 91.1131 47.7573 93.3387 43.1528C94.4118 40.9883 94.4118 36.8168 93.3785 32.291C92.9413 30.4413 92.5836 28.0014 92.5836 26.8601C92.5836 24.302 91.3516 20.524 89.7618 18.2415C88.1721 15.9589 85.1516 13.637 82.449 12.6531C79.3093 11.4725 74.5003 11.5118 71.4798 12.7712ZM75.8913 20.7601C78.1169 22.295 79.19 24.5775 79.19 27.962C79.2298 32.3303 76.6862 35.8329 73.4272 35.8329C72.1157 35.8329 71.5593 35.5574 70.3272 34.3374C67.0682 31.1497 67.0682 24.7743 70.3272 21.5866C71.5593 20.3666 72.1157 20.0911 73.3875 20.0911C74.2221 20.0911 75.3746 20.4059 75.8913 20.7601ZM89.3644 21.8227C93.0208 25.0498 91.3913 33.0781 87.099 33.0781C85.3105 33.0781 84.4759 32.5665 83.4028 30.8349C81.4157 27.6865 82.608 22.3343 85.5887 21.0356C87.0195 20.4453 88.0528 20.6421 89.3644 21.8227Z" fill="#161213"/>
<path d="M88.3028 73.162C85.4061 73.8583 83.1192 75.0995 81.1678 77.0976C77.9661 80.3066 76.5635 84.1513 76.8379 88.9043C77.0209 92.1435 77.6917 93.8389 79.3688 95.4736C81.2897 97.29 83.1192 97.9258 86.7783 98.0772C90.1323 98.2285 94.7061 97.5322 95.4684 96.7754C95.8343 96.4121 97.6028 85.7558 97.3284 85.4834C97.2674 85.4228 96.4137 85.332 95.4379 85.332C93.395 85.332 93.6389 84.8476 92.7546 90.5693C92.4497 92.6279 92.1143 93.8691 91.8094 94.1113C91.535 94.293 90.4678 94.5654 89.431 94.6562C83.6681 95.292 80.3445 91.6289 81.2897 85.7558C82.113 80.6699 85.4061 77.2187 90.2543 76.3105C91.596 76.0683 92.5717 76.0986 94.5232 76.4316C95.8953 76.6738 97.2674 76.9765 97.5419 77.0976C98.1517 77.3398 98.5786 76.5527 98.8835 74.5546L99.0664 73.4042L96.7491 73.0409C93.7304 72.6171 90.4373 72.6474 88.3028 73.162Z" fill="#161213"/>
<path d="M10.557 73.1446C8.9621 73.4483 6.47768 74.8152 5.0361 76.1518C1.66219 79.2805 0.0672501 83.2293 0.00590633 88.5754C-0.0247656 91.6737 0.0365782 92.0382 0.86472 93.6785C1.87689 95.7744 3.44116 97.0198 5.92558 97.7489C8.04194 98.3564 13.0415 98.1437 16.2313 97.3236C18.3784 96.7768 18.3784 96.7768 18.4704 95.6529C18.5317 95.0454 18.4397 94.2556 18.2557 93.9519C17.949 93.3748 17.857 93.3748 16.6301 93.8C14.7591 94.4683 9.60621 94.6809 8.07262 94.1949C4.76005 93.1014 3.65586 88.8792 5.22013 83.29C5.77222 81.3764 6.29365 80.4955 7.7659 78.9159C9.63688 76.9111 10.8944 76.4251 14.0843 76.4859C15.6179 76.5163 17.1822 76.6074 17.6116 76.6378C18.2864 76.7289 18.3784 76.577 18.7158 75.119C18.9918 73.9343 18.9918 73.4787 18.7158 73.3268C18.317 73.0534 11.6919 72.9016 10.557 73.1446Z" fill="#161213"/>
<path d="M34.4627 74.8405C33.6037 74.9616 33.4503 75.1131 33.2662 75.9914C33.0207 77.3241 33.2662 77.6572 34.5547 77.6572C35.4445 77.6572 35.5979 77.7481 35.5979 78.3841C35.5979 78.7778 34.9843 83.018 34.2173 87.8337C33.4503 92.6191 32.8367 96.8593 32.8367 97.2227C32.8367 98.1011 34.0332 98.3737 38.0522 98.3737C40.3225 98.3434 41.2736 98.2222 42.4088 97.7073C44.5257 96.7684 46.121 95.1935 47.1335 93.0431C47.8698 91.4379 48.0232 90.6504 48.1152 88.1366C48.2686 84.6233 47.7777 83.1695 46.1824 82.3517C44.0041 81.1705 41.3657 82.2306 39.0647 85.1987C37.9295 86.6525 37.8682 86.5616 38.5124 84.4415C38.8806 83.2301 40.1998 75.8097 40.1998 74.9011C40.1998 74.6285 36.3955 74.5982 34.4627 74.8405ZM44.0655 86.6222C44.4336 88.0154 43.9121 90.9836 43.053 92.5282C42.0099 94.4666 40.7521 95.2238 38.6965 95.2238C36.8864 95.2238 36.825 95.1026 37.6227 92.4677C38.6352 89.1663 40.7827 85.9559 42.3474 85.4713C43.053 85.229 43.8507 85.7742 44.0655 86.6222Z" fill="#161213"/>
<path d="M102.176 74.9242C101.501 75.0444 101.194 75.345 101.01 76.0063C100.673 77.2987 100.918 77.6594 102.115 77.6594C102.698 77.6594 103.25 77.7796 103.342 77.8998C103.404 78.0201 102.79 82.3783 101.961 87.5781C101.133 92.778 100.458 97.2865 100.458 97.557C100.458 98.0079 100.734 98.098 102.299 98.098C103.526 98.098 104.201 97.9778 104.263 97.7073C104.324 97.5269 104.6 96.1744 104.877 94.7016C105.49 91.4855 106.411 89.2012 107.822 87.3377C109.51 85.1435 111.29 84.6326 111.689 86.1955C111.781 86.5863 111.505 89.1711 111.045 91.9664C110.615 94.7617 110.216 97.2564 110.185 97.4969C110.093 98.098 113.898 98.3385 114.082 97.7373C114.359 96.7455 115.555 88.6902 115.709 86.7666C115.924 84.0615 115.525 82.9794 114.052 82.3182C111.812 81.2662 108.712 82.4084 106.963 84.873C105.889 86.4059 105.613 86.3759 106.135 84.7829C106.595 83.4904 107.822 76.5473 107.822 75.315C107.822 74.6838 107.73 74.6537 105.46 74.6838C104.14 74.7138 102.667 74.804 102.176 74.9242Z" fill="#161213"/>
<path d="M150.547 76.8055C147.888 77.35 148.012 77.2593 147.795 78.7718C147.27 82.3412 147.362 82.19 146.033 82.19C144.673 82.19 144.673 82.2202 144.364 83.9142L144.147 85.215H145.26C145.848 85.215 146.404 85.336 146.497 85.4872C146.59 85.6385 146.404 87.514 146.064 89.6315C144.858 97.2242 145.353 98.3737 149.743 98.3737C152.68 98.3434 152.866 98.2224 152.866 96.4074V94.8949L151.691 95.0764C150.021 95.3184 149.341 94.6227 149.588 92.9589C150.207 88.6937 150.701 85.7595 150.856 85.5175C150.949 85.336 151.845 85.215 152.835 85.215H154.628L154.844 84.0655C155.153 82.1597 155.184 82.19 153.175 82.19C151.876 82.19 151.32 82.069 151.351 81.7967C151.351 81.6152 151.536 80.375 151.753 79.0743C151.969 77.7735 152.062 76.6845 151.969 76.624C151.876 76.5635 151.227 76.6543 150.547 76.8055Z" fill="#161213"/>
<path d="M55.2631 82.1719C53.1987 82.8136 51.4425 84.464 50.2717 86.8477C49.3165 88.7731 49.2549 89.0787 49.2549 92.1348C49.2549 95.8022 49.563 96.5662 51.5966 97.7581C52.9523 98.5527 57.081 98.5833 59.6383 97.8192C61.3022 97.3302 61.3946 97.2386 61.5795 96.1384C61.7027 95.5271 61.8568 94.7325 61.9492 94.4269C62.0724 93.9685 62.0108 93.8768 61.5486 94.0908C58.4675 95.3438 54.7393 95.5577 53.7225 94.5492C53.0139 93.8463 52.8598 91.8598 53.5069 91.6764C53.6917 91.6153 54.8934 91.4014 56.1258 91.218C60.4394 90.5456 62.6887 89.0787 63.12 86.6032C63.3665 85.1669 62.6579 83.4554 61.4254 82.5692C60.347 81.8051 57.081 81.5912 55.2631 82.1719ZM58.7756 85.2585C60.3162 86.7561 58.0053 88.7425 54.7393 88.7425C53.9998 88.7425 53.7225 88.5897 53.7225 88.2536C53.7225 87.5506 54.8626 85.7781 55.6637 85.228C56.5264 84.6168 58.1594 84.6473 58.7756 85.2585Z" fill="#161213"/>
<path d="M71.1478 82.4482C70.6073 82.7825 69.7367 83.7549 69.2263 84.5754C68.7159 85.4262 68.2355 86.034 68.1755 85.9732C68.0854 85.8821 68.2355 85.092 68.5057 84.1803C68.7759 83.2687 68.9861 82.4178 68.9861 82.2659C68.9861 82.0532 64.2124 82.3267 63.9722 82.5698C63.9121 82.6306 64.0923 83.1775 64.3625 83.7853C64.8729 84.8489 64.8729 85.0616 63.9121 91.2C63.3717 94.6642 62.8913 97.6118 62.8913 97.7941C62.8613 97.9765 63.6419 98.098 64.7828 98.098H66.7343L67.0646 95.6062C67.8452 90.0452 70.0369 86.0036 72.4087 85.7301C73.3395 85.639 73.4596 85.4262 73.9099 82.9648C74.1201 81.8405 74.1201 81.8405 73.1293 81.8405C72.5889 81.8405 71.6882 82.114 71.1478 82.4482Z" fill="#161213"/>
<path d="M123.233 82.1782C121.278 82.8211 118.681 85.2397 117.795 87.2909C117.032 89.036 116.665 92.5261 117.001 94.3937C117.123 94.9754 117.551 95.8938 118.009 96.4143C119.292 97.945 120.392 98.3737 123.142 98.3737C125.189 98.3737 125.83 98.2512 127.113 97.5777C130.535 95.802 132.46 92.4343 132.46 88.3012C132.46 85.056 131.726 83.5252 129.618 82.4231C128.335 81.7802 124.944 81.6271 123.233 82.1782ZM127.358 85.6071C128.06 86.0051 128.549 87.7501 128.396 89.2503C128.06 92.4343 126.105 94.8835 123.875 94.8835C122.225 94.8835 121.584 94.4855 121.156 93.1691C120.24 90.4443 122.164 86.0969 124.608 85.3315C125.25 85.1478 126.838 85.3009 127.358 85.6071Z" fill="#161213"/>
<path d="M138.329 82.0086C135.895 82.617 134.386 84.0164 134.016 86.0242C133.708 87.667 134.571 89.3705 136.48 91.0133C137.405 91.7738 138.236 92.656 138.329 92.9907C138.852 94.6334 136.45 95.759 133.739 95.1506L132.199 94.7855L131.059 96.0937C129.734 97.6451 129.765 97.706 132.938 98.1927C138.421 99.0141 142.487 96.9759 142.487 93.3557C142.487 91.6521 141.995 90.7699 139.9 88.7317C137.22 86.1459 137.774 84.7769 141.44 84.7769H143.319L143.504 83.4992C143.596 82.7691 143.627 82.1303 143.535 82.039C143.258 81.7956 139.284 81.7652 138.329 82.0086Z" fill="#161213"/>
<path d="M18.1286 82.3589C18.1286 82.5106 18.6161 84.4831 19.1949 86.7893C22.0588 98.2296 21.2972 102.508 16.3006 102.66C14.7163 102.69 14.6249 102.751 14.4421 103.57C14.3202 104.026 14.2288 104.784 14.1984 105.239C14.1679 106.089 14.1679 106.089 16.2397 106.089C18.9512 106.089 20.8706 105.148 23.1556 102.721C26.8117 98.7455 30.0716 92.7674 33.2097 84.301C34.0019 82.0858 33.9714 82.0251 31.534 82.1768L29.9193 82.2678L28.1827 86.5162C25.9891 91.8874 24.8923 94.2543 24.5571 94.2543C24.4352 94.2543 24.222 93.0709 24.1306 91.5839C23.9782 89.3687 23.1556 84.6955 22.5158 82.632C22.394 82.2072 21.9979 82.1161 20.2308 82.1161C19.0731 82.1161 18.1286 82.2375 18.1286 82.3589Z" fill="#161213"/>
</svg>
